<svg width="34" height="32" viewBox="0 0 34 32" fill="none" xmlns="http://www.w3.org/2000/svg">
<path d="M13.706 5.40331C13.7154 5.39252 13.7322 5.37318 13.7493 5.34832C13.7681 5.32099 13.7831 5.29335 13.7972 5.26516C13.8224 5.21467 13.8593 5.13204 13.923 4.9892L13.9291 4.97532L13.9292 4.97516C13.9818 4.85698 14.0259 4.73801 14.0659 4.62602L14.0661 4.62538C14.636 3.01658 15.975 2.06213 17.67 2.05226H17.6966C19.8639 2.05226 21.6748 4.00042 21.6748 6.4548L21.6746 14.2292C21.6746 14.3279 21.6372 14.4181 21.5688 14.4866C21.5687 14.4867 21.5686 14.4868 21.5686 14.4868M13.706 5.40331L21.5686 14.4868M13.706 5.40331C13.4817 5.81802 12.8782 6.86315 11.2541 9.6751L11.254 9.67532C11.2236 9.72773 11.2159 9.78669 11.2311 9.84451M13.706 5.40331L11.2311 9.84451M21.5686 14.4868C21.5 14.5551 21.41 14.5926 21.3116 14.5926C21.1121 14.5926 20.9487 14.4295 20.9487 14.2292M21.5686 14.4868L20.9487 14.2292M20.9487 14.2292C20.9487 14.2292 20.9487 14.2292 20.9487 14.2292M20.9487 14.2292V14.2292M11.2311 9.84451C11.2469 9.90277 11.2838 9.95042 11.3346 9.97986C11.5651 10.1121 11.893 10.0222 12.0231 9.79556L12.0235 9.79485L13.451 7.3234L13.4512 7.32309C13.6039 7.05937 13.9144 6.92844 14.2123 7.00906L14.1339 7.29864M11.2311 9.84451L13.7108 7.47345C13.7961 7.3262 13.9685 7.25387 14.1339 7.29864M14.1339 7.29864C14.2983 7.3427 14.4126 7.49183 14.4126 7.66193V15.4315C14.4126 15.798 14.6892 16.1144 15.0292 16.1368M14.1339 7.29864L14.2115 7.00886C14.5073 7.08809 14.7126 7.35619 14.7126 7.66193V15.4315C14.7126 15.6582 14.8837 15.8254 15.0471 15.8373M15.0292 16.1368L15.045 15.8372C15.0457 15.8373 15.0464 15.8373 15.0471 15.8373M15.0292 16.1368C15.2252 16.1472 15.408 16.0815 15.5454 15.9443M15.0292 16.1368L16.7913 16.6303M15.0471 15.8373C15.1627 15.8429 15.2603 15.805 15.3334 15.732L15.5454 15.9443M15.0471 15.8373L15.5454 15.9443M15.5454 15.9443L15.3332 15.7322C15.4016 15.6639 15.439 15.574 15.439 15.4753V10.3939C15.439 10.0204 15.7418 9.71763 16.1153 9.71763C16.4887 9.71763 16.7915 10.02 16.7915 10.3939V10.3939L16.7913 16.6303M16.7913 16.6303C16.7913 16.6303 16.7913 16.6303 16.7913 16.6303C16.7913 16.8302 16.9546 16.9935 17.1545 16.9935C17.253 16.9935 17.3434 16.9559 17.4119 16.8877C17.4802 16.8192 17.5177 16.7288 17.5177 16.6303V10.3939C17.5177 10.0205 17.8201 9.71763 18.194 9.71763C18.5673 9.71763 18.8702 10.02 18.8702 10.3939L18.87 15.4168V15.4752C18.87 15.6748 19.0331 15.8382 19.2334 15.8382C19.3311 15.8382 19.4214 15.8009 19.4912 15.7313C19.5592 15.6634 19.5966 15.5737 19.5966 15.475V10.3936C19.5966 10.0203 19.8991 9.71737 20.2729 9.71737C20.6462 9.71737 20.9491 10.0198 20.9491 10.3936V10.3937L20.9487 14.2292M16.7913 16.6303L20.9487 14.2292M21.3116 15.9447H20.8839C20.8051 16.2234 20.6562 16.4788 20.4461 16.6883C20.1227 17.0116 19.691 17.1903 19.2332 17.1903C19.0788 17.1903 18.9312 17.1683 18.7919 17.1293C18.7132 17.3948 18.5711 17.6398 18.368 17.8431L18.3679 17.8432C18.0444 18.1667 17.6126 18.3455 17.1545 18.3455C16.38 18.3455 15.7311 17.83 15.5185 17.1274C15.3408 17.1771 15.1531 17.199 14.9607 17.1866L14.9603 17.1866C14.0536 17.1272 13.3603 16.3483 13.3603 15.4312V10.1844L13.1954 10.4701C13.1954 10.4701 13.1953 10.4702 13.1953 10.4703C12.8653 11.0441 12.2491 11.3992 11.5858 11.3992C11.2622 11.3992 10.9429 11.3143 10.6604 11.1524L10.6604 11.1524L10.6591 11.1516C10.2954 10.9408 10.0336 10.6007 9.92506 10.1944L10.2147 10.117L9.92515 10.1947C9.81609 9.78842 9.87276 9.36216 10.0834 8.99831L10.0841 8.99715L10.0842 8.997L10.0849 8.99574L10.0852 8.99528L10.0902 8.98665L10.0918 8.98392L10.11 8.95234L10.1856 8.8216L10.4563 8.35291L11.2874 6.91349C11.8819 5.88383 12.4929 4.8253 12.5923 4.6524C12.6126 4.60728 12.6557 4.51053 12.6935 4.42552L12.9644 4.54599L12.6935 4.42551C12.7286 4.34678 12.7596 4.26362 12.7916 4.17349C13.5491 2.03491 15.4331 0.700043 17.6966 0.700043C20.6584 0.700043 23.0268 3.3046 23.0268 6.45463L23.027 14.229C23.027 14.6867 22.8486 15.1185 22.5254 15.4422L22.5252 15.4424C22.2017 15.7659 21.7699 15.9447 21.3116 15.9447Z" fill="#4CAF4F" stroke="#4CAF4F" stroke-width="0.6"/>
<path d="M14.3981 18.4892C14.3493 18.3127 14.2719 18.1418 14.1629 17.9847C13.6457 17.2374 12.6205 17.0435 11.8344 17.5156L7.3349 20.2149L7.4954 19.9258C7.81754 19.3483 7.80497 18.6367 7.46383 18.0681L14.3981 18.4892ZM14.3981 18.4892C14.5323 18.4545 14.671 18.4362 14.8117 18.4362C14.9522 18.4362 15.0924 18.4537 15.2301 18.4879L15.2303 18.488C15.6744 18.599 16.0499 18.8775 16.2852 19.2698L16.2852 19.2699C16.5206 19.6625 16.5897 20.1245 16.4787 20.5682L14.3981 18.4892ZM16.5576 22.9454L16.5577 22.9452C16.6683 22.5011 16.5993 22.0393 16.3639 21.6466C16.2854 21.5155 16.1909 21.3999 16.0849 21.2994C16.2722 21.0952 16.4091 20.8471 16.4787 20.5683C16.4787 20.5684 16.4787 20.5684 16.4787 20.5684L16.5576 22.9454ZM16.5576 22.9454C16.481 23.2516 16.3247 23.5251 16.1062 23.7428M16.5576 22.9454L16.1062 23.7428M16.1062 23.7428C16.2038 23.8385 16.2912 23.9474 16.3647 24.0698L16.3648 24.0699C16.6005 24.4627 16.6695 24.9248 16.5586 25.3689L16.5585 25.3691C16.4473 25.8129 16.1689 26.1882 15.7767 26.4237L15.7766 26.4238L9.11017 30.4231L9.11012 30.4231C7.80445 31.2061 6.28998 31.4791 4.84632 31.1842L4.8463 31.1842C3.38873 30.8864 2.17304 30.0457 1.43322 28.8124L16.1062 23.7428ZM4.63222 18.0155L4.63195 18.016L4.63068 18.0183L4.62574 18.0272L4.60647 18.0619L4.53318 18.1939L4.27045 18.6672L3.46352 20.1208C2.88639 21.1604 2.29323 22.2285 2.19627 22.4022C2.16767 22.4433 2.10675 22.5306 2.05384 22.6058L2.05361 22.6062C2.00471 22.6759 1.94924 22.7455 1.88844 22.8189L1.88812 22.8193C0.444168 24.5687 0.268486 26.8712 1.4332 28.8123L4.63222 18.0155ZM4.63222 18.0155L4.6323 18.0153L4.63233 18.0153L4.63222 18.0155ZM6.77752 17.4026L6.77672 17.4021C6.53473 17.2679 6.27178 17.2041 6.01268 17.204C6.01263 17.204 6.01257 17.204 6.01252 17.204V17.504L6.77752 17.4026ZM6.77752 17.4026C7.06012 17.5605 7.29751 17.7904 7.46379 18.068L6.77752 17.4026ZM3.41376 22.9697C3.65424 22.5637 4.24008 21.5084 5.8151 18.6709L5.81538 18.6704C5.8743 18.5638 6.01032 18.5235 6.11977 18.5836C6.19356 18.6251 6.25351 18.682 6.29879 18.754L6.30455 18.7636C6.39794 18.9192 6.40064 19.1129 6.31431 19.2678L6.31408 19.2682L4.92875 21.7642L4.92871 21.7642C4.78045 22.0315 4.82995 22.3657 5.05031 22.5784L5.05031 22.5784C5.27039 22.7909 5.60574 22.8286 5.86753 22.6722L5.86794 22.6719L12.5301 18.6752L12.5303 18.6751C12.7252 18.558 12.9578 18.6197 13.0509 18.7544L13.0511 18.7547C13.1144 18.846 13.1328 18.9496 13.107 19.0523L13.107 19.0524C13.0836 19.1459 13.0254 19.2248 12.941 19.2755L3.41376 22.9697ZM3.41376 22.9697C3.40914 22.9844 3.40232 23.0044 3.39277 23.0262C3.37873 23.0583 3.36223 23.0869 3.3447 23.1147C3.3137 23.164 3.26075 23.2396 3.17027 23.3689L3.1608 23.3824L3.16048 23.3829C3.0866 23.488 3.00773 23.587 2.93128 23.6798L2.93106 23.6801C1.8392 25.003 1.71411 26.6522 2.59249 28.1167C3.13154 29.0154 4.02406 29.6362 5.11649 29.8593C6.22252 30.0841 7.39324 29.8759 8.4141 29.2634L8.41412 29.2634L15.0811 25.2639L15.0813 25.2638C15.1652 25.2135 15.2233 25.135 15.2469 25.0407L15.2469 25.0406C15.2704 24.9465 15.2562 24.8499 15.2056 24.7658L15.2056 24.7656C15.1024 24.5938 14.8784 24.538 14.7079 24.6407L14.7075 24.641L11.4187 26.614L3.41376 22.9697ZM15.537 22.6902L15.246 22.6174C15.2226 22.711 15.1644 22.7899 15.0798 22.8406L14.0117 23.4814L10.7226 25.4545L10.7225 25.4546C10.4023 25.6468 10.2986 26.0622 10.4908 26.3824L14.5522 21.9604C14.8653 21.7723 15.2736 21.8744 15.4619 22.1879C15.5533 22.3399 15.5799 22.5185 15.537 22.6902ZM15.537 22.6902L15.246 22.6176C15.2696 22.5231 15.2551 22.4263 15.2048 22.3426L15.2047 22.3423C15.1016 22.1707 14.8775 22.1149 14.7067 22.2176L14.7066 22.2176L10.3492 24.8315M15.537 22.6902C15.4941 22.8615 15.3865 23.0064 15.2343 23.0978L14.1661 23.7386L10.8769 25.7118L10.3492 24.8315M10.3492 24.8315C10.0284 25.0241 9.61359 24.9198 9.42146 24.5999C9.22905 24.2795 9.33344 23.8643 9.65293 23.6722L9.6532 23.672L15.0009 20.464C15.0853 20.4133 15.1433 20.3348 15.1668 20.2407L15.1668 20.2406C15.1903 20.1466 15.1761 20.0499 15.1257 19.9656L10.3492 24.8315ZM13.5662 20.4776L13.637 20.4351C13.6371 20.4351 13.6371 20.4351 13.6371 20.4351L13.5662 20.4776ZM13.5662 20.4776H13.5659M13.5662 20.4776H13.5659M13.5659 20.4776L9.2799 23.0489L13.5659 20.4776ZM4.62629 18.0267C4.67032 18.164 4.74676 18.2401 4.82812 18.2807C4.86192 18.2198 4.88383 18.1803 4.89153 18.1665L4.62629 18.0267ZM8.5836 21.8895L12.9408 19.2756L8.35183 22.8173C8.15946 22.4969 8.26386 22.0818 8.58333 21.8897L8.5836 21.8895ZM15.1256 19.9655C15.0754 19.8818 14.9969 19.8237 14.9027 19.8001C14.8069 19.7764 14.7108 19.791 14.6273 19.841L13.6374 20.4349L15.1256 19.9655ZM9.27958 23.0491C8.95894 23.2418 8.54383 23.1377 8.35187 22.8174L9.27958 23.0491Z" fill="#4CAF4F" stroke="#4CAF4F" stroke-width="0.6"/>
<path d="M17.943 24.0701C18.0165 23.9474 18.104 23.8383 18.2018 23.7424C17.9835 23.5249 17.8271 23.2513 17.7508 22.9449C17.6396 22.5009 17.709 22.0386 17.9443 21.6462L17.9445 21.6459C18.0233 21.5147 18.1172 21.3985 18.2222 21.2976C18.0357 21.0938 17.8992 20.8464 17.8297 20.5684C17.7185 20.1242 17.7878 19.6621 18.0232 19.27C18.2585 18.8772 18.6342 18.5988 19.0781 18.4878C19.2164 18.4531 19.357 18.436 19.4965 18.436L19.4968 18.436C19.6375 18.4361 19.7761 18.4544 19.9104 18.489C19.9593 18.3125 20.0366 18.1416 20.1457 17.9843C20.6631 17.2378 21.6873 17.0431 22.4744 17.5153C22.4744 17.5153 22.4744 17.5154 22.4745 17.5154L26.974 20.2143L26.8139 19.9261C26.8139 19.926 26.8138 19.9259 26.8138 19.9258C26.4914 19.3477 26.5036 18.6362 26.8448 18.0673L26.8449 18.0672C27.0115 17.7897 27.249 17.56 27.5323 17.4011L27.5337 17.4003C27.7752 17.2666 28.0375 17.2031 28.296 17.2031H28.2962C28.8493 17.2034 29.3887 17.4951 29.6763 18.0144C30.4719 19.448 31.9604 22.1284 32.1135 22.4027C32.141 22.4424 32.2016 22.5293 32.2547 22.6048C32.3045 22.6755 32.3597 22.745 32.4204 22.8183L32.4209 22.8188C33.6999 24.3692 33.9835 26.353 33.2217 28.135L33.2967 28.1095L32.8754 28.812C32.1357 30.0456 30.9203 30.8862 29.4625 31.184L29.4624 31.184C28.0186 31.4783 26.5047 31.2059 25.1987 30.4229L25.1986 30.4228L18.5316 26.4234L18.5316 26.4234C18.1391 26.1879 17.8604 25.8125 17.7492 25.3681L17.7491 25.3677C17.6387 24.9242 17.708 24.4622 17.943 24.0701ZM17.943 24.0701L18.2004 24.2242L17.9431 24.07C17.9431 24.07 17.943 24.0701 17.943 24.0701ZM31.4129 23.7229C32.4722 25.0379 32.5852 26.6676 31.7153 28.1167L31.7153 28.1168C31.1762 29.0155 30.2836 29.6363 29.1914 29.8593C28.0863 30.0849 26.9147 29.8759 25.8939 29.2635L25.8939 29.2635L19.2271 25.2641C19.2271 25.2641 19.227 25.2641 19.2269 25.264C19.1421 25.2129 19.0841 25.1344 19.0607 25.041C19.0375 24.9469 19.0519 24.8497 19.1023 24.7655L18.845 24.6114M31.4129 23.7229L19.3255 24.6001C19.2312 24.6237 19.1524 24.682 19.1022 24.7657L18.845 24.6114M31.4129 23.7229L31.3778 23.6803C31.3007 23.587 31.2216 23.4875 31.1481 23.3828L31.1381 23.3686C31.0464 23.2385 30.9887 23.1566 30.9543 23.0996C30.9342 23.0663 30.9156 23.0313 30.9009 22.9913C30.896 22.9779 30.8919 22.965 30.8886 22.9531C30.6326 22.5243 30.0353 21.4487 28.4932 18.6705L28.4932 18.6704C28.4334 18.5626 28.2979 18.5234 28.1899 18.5827C28.1114 18.6268 28.0497 18.6869 28.0038 18.7635L28.0037 18.7636C27.9105 18.9189 27.9076 19.1125 27.9945 19.2681L27.9949 19.2687L29.3797 21.7639C29.3797 21.7639 29.3797 21.7639 29.3797 21.7639C29.5281 22.0313 29.4788 22.3649 29.2592 22.5777M31.4129 23.7229L22.8889 26.614L23.0435 26.3569L22.8892 26.6142L22.889 26.6141C23.2104 26.8074 23.625 26.7016 23.8168 26.3826L23.817 26.3824C24.0091 26.062 23.9054 25.6469 23.5853 25.4547L23.5852 25.4546L20.2965 23.4815L20.2965 23.4815L19.2285 22.8408C19.2285 22.8407 19.2284 22.8407 19.2283 22.8406C19.2283 22.8406 19.2283 22.8406 19.2283 22.8406C19.1435 22.7895 19.0855 22.711 19.0621 22.6176C19.0388 22.523 19.0532 22.4262 19.1035 22.3425L18.8464 22.188L19.1035 22.3425C19.207 22.1703 19.4308 22.1148 19.6016 22.2175L19.6019 22.2177L23.9588 24.8316L23.959 24.8318C24.2797 25.0238 24.6943 24.9197 24.8864 24.6001L24.8866 24.5998C25.0787 24.2795 24.9751 23.8644 24.6549 23.6721L24.6548 23.6721L20.3479 21.088L20.3478 21.088L19.3073 20.464C19.2229 20.4133 19.1648 20.3346 19.1412 20.2409M18.845 24.6114C18.9361 24.4594 19.0813 24.352 19.2528 24.3091L18.7696 25.1134C18.7272 24.9421 18.7538 24.7636 18.845 24.6114ZM29.2592 22.5777C29.2592 22.5776 29.2592 22.5776 29.2593 22.5776L29.0504 22.3625L29.2588 22.578C29.2589 22.5779 29.259 22.5778 29.2592 22.5777ZM29.2592 22.5777C29.0384 22.792 28.703 22.8277 28.4417 22.6722L28.4408 22.6717L21.7787 18.675C21.7786 18.675 21.7786 18.675 21.7786 18.675C21.5833 18.558 21.3508 18.6195 21.2574 18.7544L21.2574 18.7544C21.1943 18.8455 21.1758 18.9491 21.2013 19.0521C21.2247 19.1457 21.2827 19.2242 21.3674 19.275L21.3673 19.2752L21.3687 19.276M21.3687 19.276L21.377 19.281M21.3687 19.276C21.3682 19.2757 21.3678 19.2755 21.3673 19.2752L21.2231 19.5158L21.2132 19.5323L21.3473 19.264C21.3584 19.2695 21.3683 19.2753 21.377 19.281M21.3687 19.276C21.3856 19.2862 21.3986 19.2963 21.4078 19.304C21.4139 19.3092 21.4187 19.3137 21.4215 19.3164L21.4213 19.3161C21.4183 19.3133 21.4135 19.3088 21.4072 19.3035C21.3997 19.2971 21.3896 19.2892 21.377 19.281M21.377 19.281L25.7247 21.8892L25.7248 21.8893C26.0449 22.0816 26.1486 22.4967 25.9565 22.817L25.9563 22.8173C25.7643 23.1366 25.3497 23.2415 25.0286 23.0488M25.0286 23.0488L19.6809 19.8408M25.0286 23.0488L25.0287 23.0488L25.1828 22.7919L25.0286 23.0488ZM19.6809 19.8408C19.597 19.7905 19.5002 19.7762 19.4065 19.7997L19.4059 19.7999C19.3116 19.8234 19.2333 19.8813 19.183 19.9655L19.1826 19.9662C19.1324 20.0495 19.1179 20.1462 19.1412 20.2409M19.6809 19.8408L19.8352 19.5835M19.6809 19.8408L19.6808 19.8407L19.8352 19.5835M19.1412 20.2409C19.1412 20.2408 19.1412 20.2407 19.1412 20.2406L18.8501 20.3133L19.1414 20.2413C19.1413 20.2412 19.1413 20.241 19.1412 20.2409ZM19.8352 19.5835L25.183 22.7916C25.3616 22.8988 25.5922 22.8406 25.6992 22.6627M19.8352 19.5835C19.6834 19.4925 19.5048 19.4657 19.3333 19.5088C19.1613 19.5517 19.0167 19.6591 18.9255 19.8115L25.6992 22.6627M25.6992 22.6627C25.8062 22.4844 25.7484 22.2535 25.5703 22.1465L21.2143 19.5333L25.6992 22.6627ZM19.6005 24.641C19.5167 24.5909 19.4205 24.5764 19.3255 24.6001L19.6005 24.641Z" fill="#4CAF4F" stroke="#4CAF4F" stroke-width="0.6"/>
</svg>
